<?xml version="1.0" encoding="UTF-8"?>
<!-- Generator: Adobe Illustrator 24.1.2, SVG Export Plug-In . SVG Version: 6.00 Build 0) --> <svg xmlns="http://www.w3.org/2000/svg" xmlns:xlink="http://www.w3.org/1999/xlink" version="1.1" id="Layer_1" x="0px" y="0px" viewBox="0 0 234.14 64" style="enable-background:new 0 0 234.14 64;" xml:space="preserve">
    <style type="text/css">
        .st0 {
            fill: #648CC5;
        }

        .st1 {
            fill: #4CB6AC;
        }

    </style>
    <g>
        <g>
            <path class="st0" d="M34.39,27.19l-6.77-11.87c-0.48-0.82-1.26-1.32-2.1-1.34c-0.02,0-0.03,0-0.05,0c-0.77,0-1.46,0.4-1.92,1.11 c-0.52,0.81-0.49,1.65,0.09,2.66c1.27,2.2,3.23,5.65,5.13,8.98c1.07,1.88,2.1,3.69,2.94,5.16L34.39,27.19z"></path>
            <path class="st0" d="M31.72,32.1c-0.84,1.47-1.88,3.29-2.95,5.17c-1.9,3.33-3.86,6.78-5.13,8.98c-0.58,1-0.61,1.85-0.09,2.66 c0.46,0.72,1.17,1.13,1.97,1.11c0.84-0.02,1.62-0.52,2.1-1.34c1.54-2.66,4.44-7.76,6.77-11.87c-0.97-1.71-1.85-3.25-2.48-4.36 L31.72,32.1z"></path>
        </g>
        <g>
            <g>
                <path class="st1" d="M87.71,14.8c1.43,0.29,2.71,0.78,3.84,1.46c1.13,0.68,2.05,1.56,2.75,2.65c0.7,1.09,1.05,2.42,1.05,4.01 c0,0.54-0.16,0.94-0.48,1.19s-0.66,0.37-1.02,0.37c-0.36,0-0.7-0.14-1.02-0.41c-0.32-0.27-0.48-0.66-0.48-1.16 c0-0.14-0.07-0.52-0.2-1.16c-0.14-0.63-0.49-1.29-1.05-1.97c-0.57-0.68-1.45-1.29-2.65-1.84c-1.2-0.54-2.89-0.82-5.06-0.82 c-3.4,0-5.87,0.71-7.41,2.14c-1.54,1.43-2.31,3.75-2.31,6.97v16.38c0,3.26,0.86,5.51,2.58,6.73c1.72,1.22,4.1,1.84,7.14,1.84 c3.13,0,5.51-0.67,7.14-2c1.63-1.34,2.45-3.55,2.45-6.63c0-0.5,0.15-0.87,0.44-1.12c0.29-0.25,0.62-0.37,0.99-0.37 c0.36,0,0.69,0.12,0.99,0.37c0.29,0.25,0.44,0.62,0.44,1.12c0,2.13-0.28,3.93-0.85,5.4c-0.57,1.47-1.39,2.65-2.48,3.53 c-1.09,0.88-2.4,1.52-3.94,1.9c-1.54,0.39-3.26,0.58-5.17,0.58c-4.17,0-7.3-0.85-9.38-2.55c-2.08-1.7-3.13-4.63-3.13-8.8V26.25 c0-2.27,0.28-4.16,0.85-5.68c0.57-1.52,1.38-2.74,2.45-3.67c1.07-0.93,2.37-1.59,3.91-1.97c1.54-0.39,3.31-0.58,5.3-0.58 C84.84,14.36,86.28,14.5,87.71,14.8z"></path>
                <path class="st1" d="M103.14,14.83c0.29-0.23,0.61-0.34,0.95-0.34c0.34,0,0.66,0.11,0.95,0.34c0.29,0.23,0.44,0.57,0.44,1.02v35 h14.34c0.5,0,0.87,0.15,1.12,0.44c0.25,0.29,0.37,0.63,0.37,1.02c0,0.39-0.12,0.73-0.37,1.02c-0.25,0.29-0.62,0.44-1.12,0.44 h-15.7c-0.45,0-0.8-0.14-1.05-0.41c-0.25-0.27-0.37-0.59-0.37-0.95V15.85C102.7,15.4,102.84,15.06,103.14,14.83z"></path>
                <path class="st1" d="M127.74,16.97c1.93-1.97,4.81-2.96,8.67-2.96h1.77c3.81,0,6.68,0.99,8.63,2.96 c1.95,1.97,2.92,4.88,2.92,8.73v16.86c0,3.53-1.05,6.34-3.16,8.43c-2.11,2.08-4.91,3.13-8.39,3.13h-1.77 c-1.77,0-3.36-0.27-4.79-0.82c-1.43-0.54-2.64-1.33-3.64-2.34c-1-1.02-1.77-2.24-2.31-3.67c-0.54-1.43-0.82-3-0.82-4.72V25.71 C124.85,21.85,125.82,18.94,127.74,16.97z M144.53,48.85c1.52-1.56,2.28-3.66,2.28-6.29V25.71c0-5.89-2.88-8.84-8.63-8.84h-1.77 c-2.85,0-5.04,0.75-6.56,2.24c-1.52,1.5-2.28,3.69-2.28,6.59v16.86c0,2.76,0.79,4.89,2.38,6.39c1.59,1.5,3.74,2.24,6.46,2.24 h1.77C140.9,51.2,143.01,50.41,144.53,48.85z"></path>
                <path class="st1" d="M177.84,53.37c-0.25,0.23-0.53,0.35-0.85,0.37c-0.32,0.02-0.65-0.05-0.99-0.2c-0.34-0.16-0.6-0.42-0.78-0.78 l-15.57-30.72v30.38c0,0.45-0.15,0.79-0.44,1.02c-0.29,0.23-0.62,0.34-0.99,0.34c-0.36,0-0.69-0.11-0.99-0.34 c-0.29-0.23-0.44-0.57-0.44-1.02V15.85c0-0.36,0.11-0.66,0.34-0.88c0.23-0.23,0.49-0.36,0.78-0.41c0.29-0.05,0.58-0.02,0.85,0.07 c0.27,0.09,0.48,0.25,0.61,0.48l15.9,31.33V15.85c0-0.45,0.15-0.79,0.44-1.02c0.29-0.23,0.63-0.33,1.02-0.31 c0.39,0.02,0.73,0.15,1.02,0.37c0.29,0.23,0.44,0.54,0.44,0.95v36.57C178.21,52.83,178.09,53.14,177.84,53.37z"></path>
                <path class="st1" d="M186.67,14.9c0.34-0.27,0.69-0.41,1.05-0.41h15.63c0.5,0,0.86,0.15,1.09,0.44c0.23,0.29,0.34,0.63,0.34,1.02 c0,0.39-0.12,0.73-0.37,1.02c-0.25,0.29-0.6,0.44-1.05,0.44h-14.27v14.82h11.49c0.5,0,0.87,0.16,1.12,0.48 c0.25,0.32,0.37,0.66,0.37,1.02c0,0.36-0.14,0.7-0.41,1.02s-0.63,0.48-1.09,0.48h-11.49v15.7h14.27c0.45,0,0.79,0.15,1.02,0.44 c0.23,0.29,0.34,0.62,0.34,0.99c0,0.36-0.11,0.69-0.34,0.99c-0.23,0.29-0.57,0.44-1.02,0.44h-15.63c-0.36,0-0.71-0.1-1.05-0.31 c-0.34-0.2-0.51-0.62-0.51-1.26V16.05C186.16,15.56,186.33,15.17,186.67,14.9z"></path>
                <path class="st1" d="M213.66,53.44c-0.29,0.23-0.62,0.34-0.99,0.34s-0.69-0.11-0.99-0.34c-0.29-0.23-0.44-0.57-0.44-1.02v-36.5 c0-0.95,0.48-1.43,1.43-1.43h9.18c0.59,0,1.44,0.08,2.55,0.24s2.21,0.54,3.3,1.16c1.09,0.61,2.04,1.53,2.85,2.75 c0.82,1.22,1.22,2.88,1.22,4.96v8.5c0,5.08-2.22,8.18-6.66,9.31l5.1,10.2c0.23,0.5,0.26,0.93,0.1,1.29 c-0.16,0.36-0.41,0.61-0.75,0.75c-0.34,0.14-0.73,0.14-1.16,0c-0.43-0.14-0.78-0.5-1.05-1.09l-5.17-10.67h-8.09v10.54 C214.1,52.87,213.95,53.21,213.66,53.44z M228.71,21.83c-0.14-0.73-0.44-1.4-0.92-2.04c-0.48-0.63-1.19-1.19-2.14-1.67 c-0.95-0.48-2.22-0.71-3.81-0.71h-7.75v21.55h7.14c0.95,0,1.88-0.08,2.79-0.24c0.91-0.16,1.72-0.48,2.45-0.95 c0.72-0.48,1.31-1.17,1.77-2.07c0.45-0.91,0.68-2.11,0.68-3.6v-8.5C228.92,23.15,228.85,22.56,228.71,21.83z"></path>
            </g>
            <g>
                <g>
                    <path class="st1" d="M34.67,36.74c-0.99-1.74-1.88-3.3-2.52-4.43l-0.18-0.31l2.74-4.8l-6.85-12c-0.52-0.91-1.39-1.46-2.33-1.48 c-0.88-0.02-1.69,0.43-2.2,1.23c-0.57,0.89-0.55,1.85,0.08,2.94c1.27,2.2,3.23,5.64,5.13,8.98c1.06,1.87,2.09,3.67,2.93,5.14 c-0.84,1.47-1.87,3.27-2.93,5.14c-1.9,3.33-3.86,6.78-5.13,8.98c-0.63,1.08-0.65,2.05-0.08,2.94c0.5,0.79,1.28,1.23,2.15,1.23 c0.02,0,0.04,0,0.06,0c0.93-0.02,1.8-0.57,2.33-1.48c1.55-2.67,4.46-7.79,6.81-11.94l0.04-0.07L34.67,36.74z M28.77,26.72 c-1.9-3.33-3.86-6.78-5.13-8.98c-0.58-1-0.61-1.85-0.09-2.66c0.45-0.71,1.15-1.11,1.92-1.11c0.02,0,0.03,0,0.05,0 c0.84,0.02,1.62,0.52,2.1,1.34l6.77,11.87l-2.68,4.69C30.87,30.41,29.84,28.6,28.77,26.72z M27.62,48.67 c-0.48,0.82-1.26,1.33-2.1,1.34c-0.8,0.02-1.51-0.39-1.97-1.11c-0.52-0.81-0.49-1.65,0.09-2.66c1.27-2.2,3.24-5.65,5.13-8.98 c1.07-1.88,2.1-3.69,2.95-5.17l0.19,0.33c0.64,1.12,1.51,2.65,2.48,4.36C32.06,40.91,29.16,46.01,27.62,48.67z"></path>
                    <path class="st1" d="M32.69,31.99c2.22,3.9,7.3,12.86,9.55,16.75c1.03,1.78,3.24,1.9,4.3,0.24c0.6-0.94,0.45-1.87-0.08-2.8 c-2.01-3.47-5.78-10.13-8.1-14.19c2.32-4.06,6.1-10.72,8.1-14.19c0.54-0.93,0.69-1.86,0.08-2.8c-1.06-1.65-3.27-1.54-4.3,0.24 L32.69,31.99z"></path>
                </g>
                <path class="st1" d="M34.99,3.07C19.07,3.07,6.12,15.99,6.06,31.9H2.08c-1.08,0-1.41,0.69-0.73,1.53l5.79,7.24 c0.67,0.84,1.77,0.84,2.45,0l5.79-7.24c0.67-0.84,0.34-1.53-0.73-1.53h-3.97c0.06-13.38,10.92-24.2,24.31-24.2 C48.42,7.69,59.3,18.57,59.3,32c0,13.43-10.88,24.31-24.31,24.31c0,0,0,0-0.01,0c0,0-2.66-0.01-2.66,2.3 c0,2.32,2.66,2.32,2.66,2.32c0,0,0,0,0.01,0c15.95,0,28.93-12.98,28.93-28.93S50.94,3.07,34.99,3.07z"></path>
            </g>
        </g>
    </g>
</svg>
